M48
;Layer_Color=9474304
;FILE_FORMAT=4:4
METRIC,LZ
;TYPE=PLATED
T01F00S00C0.5000
T02F00S00C0.5500
T03F00S00C0.6000
T04F00S00C0.6500
T05F00S00C0.7000
T06F00S00C0.7112
T07F00S00C0.7620
T08F00S00C0.8000
T09F00S00C0.9000
T10F00S00C1.0000
T11F00S00C1.0500
T12F00S00C3.2000
%
T01
X00268986Y00465074
Y00514074
T02
X0035687Y00536702
Y00586702
T03
X0003785Y00070866
X0013335
X00767588Y00429006
X00863088
X00211578Y00379222
X00212848Y00332994
X00211578Y00296672
X00116078
X00117348Y00332994
X00116078Y00379222
X00070612Y00814324
X00166112
T04
X00561848Y00512826
X00409702Y0053561
X00180162Y00514096
X00153162
X0015334Y0046482
X0018034
X00162052Y00226822
Y00199822
X00112522Y00198882
Y00225882
X00409702Y0056261
X00561848Y00539826
T05
X00037084Y00133858
Y00159258
T06
X00272034Y00256286
X00092456Y00255524
X00038577Y00352806
X00039624Y00662686
X0011303Y00638048
X00111506Y00612394
X00326644Y00660146
X00387096Y00637794
X00385318Y00614172
X00522986Y00856488
X00606298Y0057193
X00897128Y00571246
T07
X00823468Y00265176
X00848868
X00874268
T08
X00555752Y00179324
X00581152
X00606552
X00631952
X00530352
X00504952
X00479552
X00454152
X00449326Y0038608
Y0041148
Y0043688
Y0046228
Y0048768
Y0051308
Y0053848
X00525526
Y0051308
Y0048768
Y0046228
Y0043688
Y0041148
Y0038608
Y0056388
Y0058928
Y0061468
Y0064008
Y0066548
Y0069088
Y0071628
X00449326
Y0069088
Y0066548
Y0064008
Y0061468
Y0058928
Y0056388
T09
X0016256Y00162052
X0027178Y0018415
X0029718
X0032258
X0034798
X0013716Y00162052
X0011176
X0007239Y0030353
Y0032893
Y0035433
Y0037973
X00070866Y00586994
Y00612394
Y00637794
Y00663194
X0029083Y0068707
Y0071247
Y0073787
Y0076327
X0044704Y009271
X0047244
X0049784
X0052324
X00896366Y0068961
Y0066421
Y0063881
Y0061341
T10
X00508292Y00061214
X00558292
X00742188Y00131826
X00792188
X00920026Y00129032
X00970026
X00290322Y00813854
Y00863854
T11
X00801854Y00338582
X00910614
T12
X0002921Y00026162
X00973836
X00966724Y00969518
X00047244Y00970788
M30
