G04*
G04 #@! TF.GenerationSoftware,Altium Limited,Altium Designer,24.7.2 (38)*
G04*
G04 Layer_Physical_Order=2*
G04 Layer_Color=16711680*
%FSLAX44Y44*%
%MOMM*%
G71*
G04*
G04 #@! TF.SameCoordinates,1EDC3C93-3594-418F-BBEB-7D1DC09533BD*
G04*
G04*
G04 #@! TF.FilePolarity,Positive*
G04*
G01*
G75*
%ADD27C,1.6000*%
%ADD28R,1.6000X1.6000*%
%ADD31C,1.0000*%
%ADD32C,1.2000*%
%ADD33C,1.5240*%
%ADD34C,2.2000*%
%ADD35C,2.0000*%
%ADD36C,1.4000*%
%ADD37C,1.8000*%
%ADD38R,1.8000X1.8000*%
%ADD39R,2.2000X2.2000*%
%ADD40C,1.2000*%
%ADD41R,1.2000X1.2000*%
%ADD42C,1.2000*%
%ADD43R,2.0000X2.0000*%
%ADD44R,1.8000X1.8000*%
%ADD45R,1.2000X1.2000*%
%ADD46R,1.5240X1.5240*%
%ADD47R,1.2000X1.2000*%
%ADD48C,1.2700*%
D27*
X910614Y338582D02*
D03*
D28*
X801854D02*
D03*
D31*
X93218Y256286D02*
X272034D01*
X92456Y255524D02*
X93218Y256286D01*
D32*
X326644Y660146D02*
X522986Y856488D01*
X111506Y612394D02*
X111695D01*
X112212Y612911D02*
X114023D01*
X115285Y614172D01*
X385318D01*
X111695Y612394D02*
X112212Y612911D01*
X606527Y571701D02*
X606621Y571796D01*
X607171Y571246D02*
X897128D01*
X606621Y571796D02*
X607171Y571246D01*
X113157Y637921D02*
X386969D01*
X387096Y637794D01*
X113030Y638048D02*
X113157Y637921D01*
X38577Y352806D02*
Y661449D01*
X39624Y662497D02*
Y662686D01*
X38577Y661449D02*
X39624Y662497D01*
D33*
X848868Y265176D02*
D03*
X874268D02*
D03*
X823468D02*
D03*
X356870Y536702D02*
D03*
X973836Y26162D02*
D03*
X29210D02*
D03*
X966724Y969518D02*
D03*
X47244Y970788D02*
D03*
D34*
X525526Y614680D02*
D03*
X449326Y487680D02*
D03*
Y513080D02*
D03*
X525526Y716280D02*
D03*
X449326Y690880D02*
D03*
X525526D02*
D03*
X449326Y665480D02*
D03*
X525526D02*
D03*
Y640080D02*
D03*
X449326D02*
D03*
Y614680D02*
D03*
X525526Y589280D02*
D03*
X449326D02*
D03*
Y563880D02*
D03*
X525526D02*
D03*
Y538480D02*
D03*
X449326D02*
D03*
X525526Y513080D02*
D03*
Y487680D02*
D03*
X449326Y386080D02*
D03*
Y411480D02*
D03*
Y436880D02*
D03*
Y462280D02*
D03*
X525526D02*
D03*
Y436880D02*
D03*
Y411480D02*
D03*
Y386080D02*
D03*
D35*
X606552Y179324D02*
D03*
X631952D02*
D03*
X290322Y813854D02*
D03*
X581152Y179324D02*
D03*
X555752D02*
D03*
X530352D02*
D03*
X504952D02*
D03*
X479552D02*
D03*
X558292Y61214D02*
D03*
X111760Y162052D02*
D03*
X137160D02*
D03*
X290322Y863854D02*
D03*
X792188Y131826D02*
D03*
X970026Y129032D02*
D03*
D36*
X116078Y296672D02*
D03*
X117348Y332994D02*
D03*
X116078Y379222D02*
D03*
X166112Y814324D02*
D03*
X211578Y296672D02*
D03*
Y379222D02*
D03*
X212848Y332994D02*
D03*
X133350Y70866D02*
D03*
X37850D02*
D03*
X70612Y814324D02*
D03*
X767588Y429006D02*
D03*
X863088D02*
D03*
D37*
X72390Y303530D02*
D03*
Y328930D02*
D03*
X347980Y184150D02*
D03*
X322580D02*
D03*
X297180D02*
D03*
X72390Y354330D02*
D03*
X70866Y586994D02*
D03*
Y612394D02*
D03*
Y637794D02*
D03*
X37084Y133858D02*
D03*
X896366Y613410D02*
D03*
Y638810D02*
D03*
Y664210D02*
D03*
X290830Y687070D02*
D03*
Y712470D02*
D03*
Y737870D02*
D03*
X523240Y927100D02*
D03*
X497840D02*
D03*
X472440D02*
D03*
D38*
X72390Y379730D02*
D03*
X70866Y663194D02*
D03*
X37084Y159258D02*
D03*
X896366Y689610D02*
D03*
X290830Y763270D02*
D03*
D39*
X449326Y716280D02*
D03*
D40*
X180340Y464820D02*
D03*
X180162Y514096D02*
D03*
X561848Y512826D02*
D03*
X162052Y199822D02*
D03*
X112522Y198882D02*
D03*
X409702Y562610D02*
D03*
D41*
X268986Y465074D02*
D03*
D42*
Y514074D02*
D03*
D43*
X454152Y179324D02*
D03*
X508292Y61214D02*
D03*
X162560Y162052D02*
D03*
X742188Y131826D02*
D03*
X920026Y129032D02*
D03*
D44*
X271780Y184150D02*
D03*
X447040Y927100D02*
D03*
D45*
X561848Y539826D02*
D03*
X162052Y226822D02*
D03*
X112522Y225882D02*
D03*
X409702Y535610D02*
D03*
D46*
X356870Y586702D02*
D03*
D47*
X153340Y464820D02*
D03*
X153162Y514096D02*
D03*
D48*
X92456Y255524D02*
D03*
X272034Y256286D02*
D03*
X39624Y662686D02*
D03*
X606298Y571930D02*
D03*
X38577Y352806D02*
D03*
X326644Y660146D02*
D03*
X522986Y856488D02*
D03*
X111506Y612394D02*
D03*
X385318Y614172D02*
D03*
X113030Y638048D02*
D03*
X387096Y637794D02*
D03*
X897128Y571246D02*
D03*
M02*
