G04*
G04 #@! TF.GenerationSoftware,Altium Limited,Altium Designer,24.7.2 (38)*
G04*
G04 Layer_Physical_Order=1*
G04 Layer_Color=255*
%FSLAX44Y44*%
%MOMM*%
G71*
G04*
G04 #@! TF.SameCoordinates,1EDC3C93-3594-418F-BBEB-7D1DC09533BD*
G04*
G04*
G04 #@! TF.FilePolarity,Positive*
G04*
G01*
G75*
%ADD27C,1.6000*%
%ADD28R,1.6000X1.6000*%
%ADD31C,1.0000*%
%ADD32C,1.2000*%
%ADD33C,1.5240*%
%ADD34C,2.2000*%
%ADD35C,2.0000*%
%ADD36C,1.4000*%
%ADD37C,1.8000*%
%ADD38R,1.8000X1.8000*%
%ADD39R,2.2000X2.2000*%
%ADD40C,1.2000*%
%ADD41R,1.2000X1.2000*%
%ADD42C,1.2000*%
%ADD43R,2.0000X2.0000*%
%ADD44R,1.8000X1.8000*%
%ADD45R,1.2000X1.2000*%
%ADD46R,1.5240X1.5240*%
%ADD47R,1.2000X1.2000*%
%ADD48C,1.2700*%
G36*
X1002030Y1000506D02*
Y0D01*
X0D01*
Y993688D01*
X7072Y1000758D01*
X1002030Y1000506D01*
D02*
G37*
%LPC*%
G36*
X525083Y941100D02*
X521397D01*
X517836Y940146D01*
X514644Y938303D01*
X510540Y936393D01*
X506436Y938303D01*
X503244Y940146D01*
X499683Y941100D01*
X495997D01*
X492436Y940146D01*
X489244Y938303D01*
X485140Y936393D01*
X481036Y938303D01*
X477844Y940146D01*
X474283Y941100D01*
X470597D01*
X467036Y940146D01*
X463844Y938303D01*
X461237Y935696D01*
X459394Y932504D01*
X458440Y928943D01*
Y925257D01*
X459394Y921696D01*
X461237Y918504D01*
X461345Y918396D01*
Y815948D01*
X461723Y813076D01*
X462831Y810400D01*
X464595Y808102D01*
X514431Y758266D01*
Y727812D01*
X513098Y726479D01*
X511347Y723859D01*
X510141Y720947D01*
X509526Y717856D01*
Y714704D01*
X510141Y711613D01*
X511347Y708701D01*
X513098Y706081D01*
X515108Y703580D01*
X513098Y701079D01*
X511347Y698459D01*
X510141Y695547D01*
X509526Y692456D01*
Y689304D01*
X510141Y686213D01*
X511347Y683301D01*
X513098Y680681D01*
X515108Y678180D01*
X513098Y675679D01*
X511347Y673059D01*
X510141Y670147D01*
X509526Y667056D01*
Y663904D01*
X510141Y660813D01*
X511347Y657901D01*
X513098Y655281D01*
X515108Y652780D01*
X513098Y650279D01*
X511347Y647659D01*
X510141Y644747D01*
X509526Y641656D01*
Y638504D01*
X510141Y635413D01*
X511347Y632501D01*
X513098Y629881D01*
X515108Y627380D01*
X513098Y624879D01*
X511347Y622259D01*
X510141Y619347D01*
X509526Y616256D01*
Y613104D01*
X510141Y610013D01*
X511347Y607101D01*
X513098Y604481D01*
X515108Y601980D01*
X513098Y599479D01*
X511347Y596859D01*
X510141Y593947D01*
X509526Y590856D01*
Y587704D01*
X510141Y584613D01*
X511347Y581701D01*
X513098Y579081D01*
X515327Y576852D01*
X517947Y575101D01*
X520859Y573895D01*
X523950Y573280D01*
X527102D01*
X530193Y573895D01*
X533105Y575101D01*
X535725Y576852D01*
X537058Y578185D01*
X585871D01*
X594948Y573424D01*
Y570436D01*
X595203Y569484D01*
Y534948D01*
X583794Y523538D01*
X564910D01*
X564593Y523670D01*
X561721Y524048D01*
X547153D01*
X544814Y526200D01*
X540915Y533806D01*
X540958Y534048D01*
X541526Y536904D01*
Y540056D01*
X540911Y543147D01*
X539705Y546059D01*
X537954Y548679D01*
X535725Y550908D01*
X533105Y552659D01*
X530193Y553865D01*
X527102Y554480D01*
X523950D01*
X520859Y553865D01*
X517947Y552659D01*
X515327Y550908D01*
X514594Y550175D01*
X504122D01*
X483171Y571125D01*
X480873Y572888D01*
X478198Y573997D01*
X475326Y574375D01*
X470637D01*
X467981Y577104D01*
X464613Y584375D01*
X464711Y584613D01*
X465326Y587704D01*
Y590856D01*
X464711Y593947D01*
X463505Y596859D01*
X461754Y599479D01*
X459744Y601980D01*
X461754Y604481D01*
X463505Y607101D01*
X464711Y610013D01*
X465326Y613104D01*
Y616256D01*
X464711Y619347D01*
X463505Y622259D01*
X461754Y624879D01*
X459744Y627380D01*
X461754Y629881D01*
X463505Y632501D01*
X464711Y635413D01*
X465326Y638504D01*
Y641656D01*
X464711Y644747D01*
X463505Y647659D01*
X461754Y650279D01*
X459744Y652780D01*
X461754Y655281D01*
X463505Y657901D01*
X464711Y660813D01*
X465326Y663904D01*
Y667056D01*
X464711Y670147D01*
X463505Y673059D01*
X461754Y675679D01*
X459744Y678180D01*
X461754Y680681D01*
X463505Y683301D01*
X464711Y686213D01*
X465326Y689304D01*
X465326Y700280D01*
X465326D01*
Y732280D01*
X460421D01*
Y766064D01*
X460043Y768936D01*
X458935Y771611D01*
X457171Y773909D01*
X409381Y821699D01*
X407084Y823463D01*
X404408Y824571D01*
X401536Y824949D01*
X300440D01*
X299884Y825505D01*
X297427Y827147D01*
X294697Y828278D01*
X291799Y828854D01*
X288845D01*
X285947Y828278D01*
X283217Y827147D01*
X280760Y825505D01*
X280439Y825184D01*
X171302D01*
X170744Y825506D01*
X167692Y826324D01*
X164532D01*
X161480Y825506D01*
X158744Y823926D01*
X156510Y821692D01*
X154930Y818956D01*
X154112Y815904D01*
Y812744D01*
X154930Y809692D01*
X156510Y806956D01*
X158744Y804722D01*
X161480Y803142D01*
X164532Y802324D01*
X167692D01*
X170193Y802994D01*
X279969D01*
X280760Y802203D01*
X283217Y800561D01*
X285947Y799430D01*
X288845Y798854D01*
X291799D01*
X294697Y799430D01*
X297427Y800561D01*
X299884Y802203D01*
X300440Y802759D01*
X396940D01*
X438231Y761468D01*
Y732280D01*
X433326D01*
Y701975D01*
X384927D01*
X366587Y720315D01*
X364289Y722078D01*
X361613Y723187D01*
X358742Y723565D01*
X299534D01*
X299426Y723673D01*
X296234Y725516D01*
X292673Y726470D01*
X288987D01*
X285426Y725516D01*
X282234Y723673D01*
X279627Y721066D01*
X277784Y717874D01*
X276830Y714313D01*
Y710627D01*
X277784Y707066D01*
X279627Y703874D01*
X281537Y699770D01*
X279627Y695666D01*
X277784Y692474D01*
X276830Y688913D01*
Y685227D01*
X277784Y681666D01*
X278030Y681241D01*
X274768Y673387D01*
X272718Y671241D01*
X246404D01*
X241219Y676426D01*
Y743688D01*
X249706Y752175D01*
X276830D01*
Y749270D01*
X304830D01*
Y777270D01*
X276830D01*
Y774365D01*
X154964D01*
X107159Y822169D01*
X104861Y823932D01*
X102186Y825041D01*
X99314Y825419D01*
X75395D01*
X75244Y825506D01*
X72192Y826324D01*
X69032D01*
X65980Y825506D01*
X63244Y823926D01*
X61010Y821692D01*
X59430Y818956D01*
X58612Y815904D01*
Y812744D01*
X59430Y809692D01*
X59771Y809101D01*
Y677194D01*
X56866D01*
Y674289D01*
X40321D01*
X38400Y674036D01*
X38130D01*
X37868Y673966D01*
X37450Y673911D01*
X37060Y673749D01*
X35243Y673262D01*
X32655Y671768D01*
X30542Y669655D01*
X29048Y667067D01*
X28274Y664180D01*
Y661192D01*
X29048Y658305D01*
X30542Y655717D01*
X32655Y653604D01*
X35243Y652110D01*
X38130Y651336D01*
X41118D01*
X43966Y652099D01*
X51927D01*
X56866Y644639D01*
Y635951D01*
X57820Y632390D01*
X61512Y625094D01*
X57820Y617798D01*
X56866Y614237D01*
Y610551D01*
X57820Y606990D01*
X59663Y603798D01*
X62270Y601191D01*
X65462Y599348D01*
X69023Y598394D01*
X72709D01*
X76270Y599348D01*
X79462Y601191D01*
X79570Y601299D01*
X109060D01*
X110012Y601044D01*
X113000D01*
X115887Y601818D01*
X118475Y603312D01*
X120588Y605425D01*
X122083Y608013D01*
X122856Y610900D01*
Y613888D01*
X122083Y616775D01*
X121028Y618602D01*
X120565Y619736D01*
X120178Y626050D01*
X122014Y630980D01*
X122112Y631079D01*
X123607Y633667D01*
X124380Y636554D01*
Y639542D01*
X123607Y642429D01*
X122112Y645017D01*
X119999Y647130D01*
X117411Y648624D01*
X114524Y649398D01*
X111536D01*
X110110Y649016D01*
X94792D01*
X84866Y649194D01*
Y677194D01*
X81961D01*
Y803229D01*
X94718D01*
X142523Y755425D01*
X144820Y753661D01*
X147496Y752553D01*
X150368Y752175D01*
X209455D01*
X219029Y748284D01*
Y671830D01*
X219407Y668958D01*
X220515Y666283D01*
X222279Y663985D01*
X235741Y650523D01*
X307407Y578857D01*
X309704Y577094D01*
X312380Y575985D01*
X315252Y575607D01*
X344250D01*
Y574082D01*
X356085D01*
X375403Y554765D01*
X377701Y553002D01*
X380376Y551893D01*
X383248Y551515D01*
X409702D01*
X410423Y551610D01*
X411150D01*
X411852Y551798D01*
X412574Y551893D01*
X412585Y551898D01*
X438681D01*
X439127Y551452D01*
X441747Y549701D01*
X444659Y548495D01*
X447750Y547880D01*
X450902D01*
X453993Y548495D01*
X456905Y549701D01*
X459525Y551452D01*
X460258Y552185D01*
X470730D01*
X491681Y531235D01*
X493979Y529472D01*
X496654Y528363D01*
X499526Y527985D01*
X504215D01*
X506871Y525257D01*
X510239Y517985D01*
X510141Y517747D01*
X509526Y514656D01*
Y511504D01*
X510141Y508413D01*
X511347Y505501D01*
X513098Y502881D01*
X515108Y500380D01*
X513098Y497879D01*
X511347Y495259D01*
X510141Y492347D01*
X509526Y489256D01*
Y486104D01*
X510141Y483013D01*
X511347Y480101D01*
X513098Y477481D01*
X515108Y474980D01*
X513098Y472479D01*
X511347Y469859D01*
X510141Y466947D01*
X509526Y463856D01*
Y460704D01*
X510141Y457613D01*
X511347Y454701D01*
X513098Y452081D01*
X515108Y449580D01*
X513098Y447079D01*
X511347Y444459D01*
X510141Y441547D01*
X509526Y438456D01*
Y435304D01*
X510141Y432213D01*
X511347Y429301D01*
X513098Y426681D01*
X515108Y424180D01*
X513098Y421679D01*
X511347Y419059D01*
X510141Y416147D01*
X509526Y413056D01*
Y409904D01*
X510141Y406813D01*
X511347Y403901D01*
X513098Y401281D01*
X515108Y398780D01*
X513098Y396279D01*
X511347Y393659D01*
X510141Y390747D01*
X509526Y387656D01*
Y384504D01*
X510141Y381413D01*
X511347Y378501D01*
X513098Y375881D01*
X515327Y373652D01*
X517947Y371901D01*
X520859Y370695D01*
X523950Y370080D01*
X527102D01*
X530193Y370695D01*
X533105Y371901D01*
X535725Y373652D01*
X537058Y374985D01*
X553271D01*
X553801Y374455D01*
Y325398D01*
X471707Y243303D01*
X469944Y241005D01*
X468835Y238330D01*
X468457Y235458D01*
Y194324D01*
X454842D01*
X434767Y214400D01*
Y355830D01*
X449017Y370080D01*
X450902D01*
X453993Y370695D01*
X456905Y371901D01*
X459525Y373652D01*
X461754Y375881D01*
X463505Y378501D01*
X464711Y381413D01*
X465326Y384504D01*
Y387656D01*
X464711Y390747D01*
X463505Y393659D01*
X461754Y396279D01*
X459744Y398780D01*
X461754Y401281D01*
X463505Y403901D01*
X464711Y406813D01*
X465326Y409904D01*
Y413056D01*
X464711Y416147D01*
X463505Y419059D01*
X461754Y421679D01*
X459744Y424180D01*
X461754Y426681D01*
X463505Y429301D01*
X464711Y432213D01*
X465326Y435304D01*
Y438456D01*
X464711Y441547D01*
X463505Y444459D01*
X461754Y447079D01*
X459744Y449580D01*
X461754Y452081D01*
X463505Y454701D01*
X464711Y457613D01*
X465326Y460704D01*
Y463856D01*
X464711Y466947D01*
X463505Y469859D01*
X461754Y472479D01*
X459744Y474980D01*
X461754Y477481D01*
X463505Y480101D01*
X464711Y483013D01*
X465326Y486104D01*
Y489256D01*
X464711Y492347D01*
X463505Y495259D01*
X461754Y497879D01*
X459744Y500380D01*
X461754Y502881D01*
X463505Y505501D01*
X464711Y508413D01*
X465326Y511504D01*
Y514656D01*
X464711Y517747D01*
X463505Y520659D01*
X461754Y523279D01*
X459525Y525508D01*
X456905Y527259D01*
X453993Y528465D01*
X450902Y529080D01*
X447750D01*
X444659Y528465D01*
X441747Y527259D01*
X439127Y525508D01*
X438405Y524786D01*
X271884D01*
X271847Y524802D01*
X271066Y524905D01*
X270434Y525074D01*
X269779D01*
X268975Y525180D01*
X180245D01*
X180162Y525191D01*
X179441Y525096D01*
X178714D01*
X178011Y524908D01*
X177290Y524813D01*
X176618Y524534D01*
X175916Y524346D01*
X175286Y523983D01*
X174615Y523704D01*
X174038Y523262D01*
X173408Y522898D01*
X172894Y522384D01*
X172317Y521941D01*
X171874Y521364D01*
X171360Y520850D01*
X170996Y520220D01*
X170553Y519643D01*
X170275Y518972D01*
X169912Y518342D01*
X169723Y517640D01*
X169445Y516968D01*
X169350Y516246D01*
X169162Y515544D01*
Y514817D01*
X169067Y514096D01*
X169162Y513375D01*
Y512648D01*
X169350Y511945D01*
X169445Y511224D01*
X169723Y510552D01*
X169912Y509850D01*
X170275Y509220D01*
X170553Y508549D01*
X170996Y507972D01*
X171360Y507342D01*
X171874Y506828D01*
X172317Y506251D01*
X172328Y506240D01*
X172905Y505797D01*
X173408Y505294D01*
X174024Y504938D01*
X174625Y504477D01*
X175326Y504186D01*
X175916Y503846D01*
X176575Y503669D01*
X177301Y503368D01*
X178081Y503265D01*
X178714Y503096D01*
X179368D01*
X180173Y502990D01*
X263986D01*
Y495634D01*
X273986D01*
Y502597D01*
X358718D01*
X362860Y492596D01*
X355821Y485558D01*
X355257Y485125D01*
X346174Y476042D01*
X279986D01*
Y476074D01*
X269707D01*
X268986Y476169D01*
X180594D01*
X177722Y475791D01*
X175047Y474683D01*
X173904Y473806D01*
X173586Y473622D01*
X173326Y473362D01*
X172749Y472919D01*
X172306Y472342D01*
X171538Y471574D01*
X170995Y470633D01*
X170986Y470621D01*
X170980Y470608D01*
X170090Y469066D01*
X169340Y466268D01*
Y463372D01*
X170090Y460574D01*
X171538Y458066D01*
X173586Y456018D01*
X176094Y454570D01*
X178892Y453820D01*
X181788D01*
X182382Y453979D01*
X267894D01*
X268859Y453852D01*
X350770D01*
X353641Y454230D01*
X356317Y455339D01*
X358615Y457102D01*
X370515Y469002D01*
X371079Y469435D01*
X378230Y476585D01*
X389183D01*
X393325Y466585D01*
X317057Y390317D01*
X216361D01*
X216210Y390404D01*
X213158Y391222D01*
X209998D01*
X206946Y390404D01*
X204210Y388824D01*
X201976Y386590D01*
X200396Y383854D01*
X199578Y380802D01*
Y377642D01*
X200396Y374590D01*
X201976Y371854D01*
X204210Y369620D01*
X206946Y368040D01*
X209998Y367222D01*
X213158D01*
X216210Y368040D01*
X216361Y368127D01*
X305843D01*
X309670Y358888D01*
X294870Y344089D01*
X217631D01*
X217480Y344176D01*
X214428Y344994D01*
X211268D01*
X208216Y344176D01*
X205480Y342596D01*
X203246Y340362D01*
X201666Y337626D01*
X200848Y334574D01*
Y331414D01*
X201666Y328362D01*
X203246Y325626D01*
X205480Y323392D01*
X208216Y321812D01*
X211268Y320994D01*
X214428D01*
X217480Y321812D01*
X217631Y321899D01*
X279018D01*
X284021Y311899D01*
X280925Y307767D01*
X216361D01*
X216210Y307854D01*
X213158Y308672D01*
X209998D01*
X206946Y307854D01*
X204210Y306274D01*
X201976Y304040D01*
X200396Y301304D01*
X199578Y298252D01*
Y295092D01*
X200396Y292040D01*
X201976Y289304D01*
X204210Y287070D01*
X206946Y285490D01*
X209998Y284672D01*
X213158D01*
X216210Y285490D01*
X216361Y285577D01*
X290322D01*
X293194Y285955D01*
X295870Y287064D01*
X298167Y288827D01*
X409726Y400385D01*
X427614D01*
X429890Y398353D01*
X433917Y390793D01*
X433869Y390385D01*
X433326Y387656D01*
Y385771D01*
X415827Y368271D01*
X414063Y365974D01*
X412955Y363298D01*
X412577Y360426D01*
Y209804D01*
X412955Y206932D01*
X414063Y204256D01*
X415827Y201959D01*
X439152Y178633D01*
Y164324D01*
X469152D01*
X469152Y164324D01*
X481029Y164324D01*
X483927Y164900D01*
X486657Y166031D01*
X492252Y169173D01*
X497847Y166031D01*
X500577Y164900D01*
X503475Y164324D01*
X506429D01*
X509327Y164900D01*
X512057Y166031D01*
X517652Y169173D01*
X523247Y166031D01*
X525977Y164900D01*
X528875Y164324D01*
X531829D01*
X534727Y164900D01*
X537457Y166031D01*
X543052Y169173D01*
X548647Y166031D01*
X551377Y164900D01*
X554275Y164324D01*
X557229D01*
X560127Y164900D01*
X562857Y166031D01*
X568452Y169173D01*
X574047Y166031D01*
X576777Y164900D01*
X579675Y164324D01*
X582629D01*
X585527Y164900D01*
X588257Y166031D01*
X593852Y169173D01*
X599447Y166031D01*
X602177Y164900D01*
X605075Y164324D01*
X608029D01*
X610927Y164900D01*
X613657Y166031D01*
X619252Y169173D01*
X624847Y166031D01*
X627577Y164900D01*
X630475Y164324D01*
X633429D01*
X636327Y164900D01*
X639057Y166031D01*
X641514Y167673D01*
X643603Y169762D01*
X645245Y172219D01*
X646376Y174949D01*
X646952Y177847D01*
Y178633D01*
X705089Y236771D01*
X706852Y239069D01*
X707961Y241744D01*
X708339Y244616D01*
Y604744D01*
X707961Y607616D01*
X706852Y610292D01*
X705089Y612589D01*
X699329Y618350D01*
X703471Y628350D01*
X877791D01*
X878645Y627616D01*
X883289Y618873D01*
X883196Y618350D01*
X882366Y615253D01*
Y611567D01*
X883320Y608006D01*
X885163Y604814D01*
X885652Y604325D01*
Y571627D01*
X885778Y570671D01*
Y569752D01*
X886016Y568864D01*
X886030Y568755D01*
X886072Y568654D01*
X886552Y566865D01*
X888046Y564277D01*
X890159Y562164D01*
X892747Y560670D01*
X895634Y559896D01*
X898622D01*
X901509Y560670D01*
X904097Y562164D01*
X906210Y564277D01*
X907704Y566865D01*
X908478Y569752D01*
Y572740D01*
X907842Y575114D01*
Y605287D01*
X909412Y608006D01*
X910366Y611567D01*
Y615253D01*
X909412Y618814D01*
X907569Y622006D01*
X905659Y626110D01*
X907569Y630214D01*
X909412Y633406D01*
X910366Y636967D01*
Y640653D01*
X909412Y644214D01*
X907569Y647406D01*
X905659Y651510D01*
X907569Y655614D01*
X909412Y658806D01*
X910366Y662367D01*
Y666053D01*
X909412Y669614D01*
X907569Y672806D01*
X904962Y675413D01*
X901770Y677256D01*
X898209Y678210D01*
X894523D01*
X890962Y677256D01*
X888683Y675940D01*
X556144D01*
X555311Y676949D01*
X552263Y685940D01*
X555723Y689401D01*
X557486Y691698D01*
X558595Y694374D01*
X558973Y697246D01*
Y769620D01*
X558595Y772492D01*
X557486Y775167D01*
X555723Y777465D01*
X508935Y824254D01*
Y840346D01*
X511010Y842414D01*
X518605Y845911D01*
X521492Y845138D01*
X524480D01*
X527367Y845911D01*
X529955Y847406D01*
X532068Y849519D01*
X533563Y852107D01*
X534336Y854994D01*
Y857982D01*
X534208Y858460D01*
Y918269D01*
X534443Y918504D01*
X536286Y921696D01*
X537240Y925257D01*
Y928943D01*
X536286Y932504D01*
X534443Y935696D01*
X531836Y938303D01*
X528644Y940146D01*
X525083Y941100D01*
D02*
G37*
G36*
X86390Y393730D02*
X58390D01*
Y365730D01*
X48516Y365425D01*
X40101D01*
X37229Y365047D01*
X34553Y363938D01*
X32713Y362527D01*
X31608Y361888D01*
X29494Y359775D01*
X28000Y357187D01*
X27227Y354300D01*
Y351312D01*
X27482Y350360D01*
Y256540D01*
Y235235D01*
X27860Y232364D01*
X28968Y229688D01*
X30731Y227390D01*
X77133Y180989D01*
X73306Y171750D01*
X51084D01*
Y173258D01*
X23084D01*
Y145258D01*
X23084D01*
X23084Y135701D01*
X23084Y135258D01*
Y132015D01*
X24038Y128454D01*
X25881Y125262D01*
X26372Y124771D01*
Y74394D01*
X25850Y72446D01*
Y69286D01*
X26668Y66234D01*
X28248Y63498D01*
X30482Y61264D01*
X33218Y59684D01*
X36270Y58866D01*
X39430D01*
X42482Y59684D01*
X45218Y61264D01*
X47452Y63498D01*
X49032Y66234D01*
X49850Y69286D01*
Y72446D01*
X49032Y75498D01*
X48562Y76312D01*
Y125738D01*
X50130Y128454D01*
X51084Y132015D01*
X51084Y143195D01*
X53105Y147320D01*
X55323Y149560D01*
X103456D01*
X104655Y148759D01*
X107385Y147628D01*
X110283Y147052D01*
X113237D01*
X116135Y147628D01*
X118865Y148759D01*
X121322Y150401D01*
X123411Y152490D01*
X125053Y154947D01*
X126184Y157677D01*
X126760Y160575D01*
Y163529D01*
X126184Y166427D01*
X125053Y169157D01*
X123411Y171614D01*
X122227Y172798D01*
Y193692D01*
X122772Y194636D01*
X123522Y197434D01*
Y200330D01*
X122772Y203128D01*
X121324Y205636D01*
X119276Y207684D01*
X116768Y209132D01*
X113970Y209882D01*
X111074D01*
X108276Y209132D01*
X105768Y207684D01*
X103720Y205636D01*
X102272Y203128D01*
X101901Y201744D01*
X97425Y199367D01*
X91522Y197980D01*
X54065Y235438D01*
X58207Y245438D01*
X87226D01*
X88075Y244947D01*
X90962Y244174D01*
X93950D01*
X96837Y244947D01*
X99425Y246442D01*
X101538Y248555D01*
X103033Y251143D01*
X103806Y254030D01*
Y257018D01*
X103033Y259905D01*
X101538Y262493D01*
X99425Y264606D01*
X96837Y266101D01*
X93950Y266874D01*
X90962D01*
X88075Y266101D01*
X87226Y265610D01*
X49672D01*
Y295588D01*
X59344Y298126D01*
X61187Y294934D01*
X63794Y292327D01*
X66986Y290484D01*
X70547Y289530D01*
X72864D01*
X73568Y288827D01*
X75865Y287064D01*
X78541Y285955D01*
X81413Y285577D01*
X111295D01*
X111446Y285490D01*
X114498Y284672D01*
X117658D01*
X120710Y285490D01*
X123446Y287070D01*
X125680Y289304D01*
X127260Y292040D01*
X128078Y295092D01*
Y298252D01*
X127260Y301304D01*
X125680Y304040D01*
X123446Y306274D01*
X120956Y307712D01*
X120710Y307854D01*
X120710D01*
X118674Y308400D01*
X117493Y312780D01*
X117250Y318846D01*
X117749Y319321D01*
X117749D01*
X120047Y321085D01*
X120333Y321370D01*
X121980Y321812D01*
X124716Y323392D01*
X126950Y325626D01*
X128530Y328362D01*
X129348Y331414D01*
Y334574D01*
X128530Y337626D01*
X126950Y340362D01*
X124716Y342596D01*
X121980Y344176D01*
X118928Y344994D01*
X115768D01*
X112716Y344176D01*
X109980Y342596D01*
X107746Y340362D01*
X107551Y340025D01*
X91329D01*
X86514Y347297D01*
X85730Y350025D01*
X86390Y352487D01*
Y360027D01*
X87929Y363198D01*
X91660Y368381D01*
X110855D01*
X111446Y368040D01*
X114498Y367222D01*
X117658D01*
X120710Y368040D01*
X123446Y369620D01*
X125680Y371854D01*
X127260Y374590D01*
X128078Y377642D01*
Y380802D01*
X127260Y383854D01*
X125680Y386590D01*
X123446Y388824D01*
X120710Y390404D01*
X117658Y391222D01*
X114498D01*
X112068Y390571D01*
X86390D01*
Y393730D01*
D02*
G37*
G36*
X864668Y441006D02*
X861508D01*
X858456Y440188D01*
X855720Y438608D01*
X853486Y436374D01*
X851906Y433638D01*
X851088Y430586D01*
Y427426D01*
X851906Y424374D01*
X853486Y421638D01*
X855720Y419404D01*
X857955Y418113D01*
X899519Y376549D01*
Y345365D01*
X898500Y343600D01*
X897614Y340294D01*
Y336870D01*
X898500Y333564D01*
X899519Y331799D01*
Y316911D01*
X881734D01*
X878862Y316533D01*
X876186Y315424D01*
X873888Y313661D01*
X866859Y306632D01*
X865096Y304334D01*
X863987Y301658D01*
X863609Y298787D01*
Y282378D01*
X861784Y280524D01*
X853739Y276936D01*
X850529Y277796D01*
X847206D01*
X844563Y277088D01*
X843848Y277014D01*
X835679Y281318D01*
X834563Y282559D01*
Y293624D01*
X834185Y296496D01*
X833076Y299172D01*
X831313Y301469D01*
X816513Y316269D01*
X814854Y325582D01*
X814854D01*
Y351582D01*
X788854D01*
Y325582D01*
X790759D01*
Y315238D01*
X791137Y312366D01*
X792245Y309691D01*
X794009Y307393D01*
X812373Y289028D01*
Y271199D01*
X811708Y270047D01*
X810848Y266838D01*
Y263514D01*
X811708Y260305D01*
X812993Y258079D01*
Y241188D01*
X813371Y238316D01*
X814480Y235641D01*
X816243Y233343D01*
X896395Y153191D01*
X898692Y151427D01*
X901368Y150319D01*
X904240Y149941D01*
X934779D01*
X935309Y149411D01*
Y109923D01*
X934779Y109393D01*
X889342D01*
X859063Y139671D01*
X856766Y141434D01*
X854090Y142543D01*
X851218Y142921D01*
X802306D01*
X801750Y143477D01*
X799293Y145119D01*
X796563Y146250D01*
X793665Y146826D01*
X790711D01*
X787813Y146250D01*
X785083Y145119D01*
X782626Y143477D01*
X780537Y141388D01*
X778895Y138931D01*
X777765Y136201D01*
X777188Y133303D01*
Y130349D01*
X777765Y127451D01*
X778895Y124721D01*
X780537Y122264D01*
X781093Y121708D01*
Y99763D01*
X780563Y99233D01*
X194759D01*
X194229Y99763D01*
Y118872D01*
X193851Y121744D01*
X192743Y124419D01*
X190979Y126717D01*
X179741Y137956D01*
X177560Y147052D01*
X177560D01*
Y177052D01*
X173147D01*
Y199822D01*
X173052Y200543D01*
Y201270D01*
X172864Y201973D01*
X172769Y202694D01*
X172491Y203365D01*
X172302Y204068D01*
X171939Y204698D01*
X171660Y205369D01*
X171218Y205947D01*
X170854Y206576D01*
X170340Y207090D01*
X169897Y207667D01*
X169320Y208110D01*
X168806Y208624D01*
X168176Y208988D01*
X167600Y209431D01*
X166928Y209709D01*
X166298Y210072D01*
X165595Y210261D01*
X164924Y210539D01*
X164203Y210634D01*
X163500Y210822D01*
X162773D01*
X162052Y210917D01*
X161331Y210822D01*
X160604D01*
X159901Y210634D01*
X159180Y210539D01*
X158509Y210261D01*
X157806Y210072D01*
X157176Y209709D01*
X156504Y209431D01*
X155928Y208988D01*
X155298Y208624D01*
X154784Y208110D01*
X154207Y207667D01*
X153764Y207090D01*
X153250Y206576D01*
X152886Y205947D01*
X152444Y205369D01*
X152165Y204698D01*
X151802Y204068D01*
X151613Y203365D01*
X151335Y202694D01*
X151240Y201973D01*
X151052Y201270D01*
Y200543D01*
X150957Y199822D01*
Y177052D01*
X147560D01*
Y147052D01*
X151465D01*
Y139446D01*
X151843Y136574D01*
X152951Y133899D01*
X154715Y131601D01*
X172039Y114276D01*
Y95168D01*
X172417Y92296D01*
X173526Y89620D01*
X175289Y87322D01*
X182318Y80293D01*
X184616Y78530D01*
X187292Y77421D01*
X190163Y77043D01*
X539237D01*
X539575Y76757D01*
X542504Y72200D01*
X544471Y67043D01*
X543868Y65589D01*
X543292Y62691D01*
Y59737D01*
X543868Y56839D01*
X544999Y54109D01*
X546641Y51652D01*
X548730Y49563D01*
X551187Y47921D01*
X553917Y46790D01*
X556815Y46214D01*
X559769D01*
X562667Y46790D01*
X565397Y47921D01*
X567854Y49563D01*
X569943Y51652D01*
X571585Y54109D01*
X572715Y56839D01*
X573292Y59737D01*
Y62691D01*
X572715Y65589D01*
X572113Y67043D01*
X574080Y72200D01*
X577009Y76757D01*
X577347Y77043D01*
X785159D01*
X788030Y77421D01*
X790706Y78530D01*
X793004Y80293D01*
X800033Y87322D01*
X801796Y89620D01*
X802905Y92296D01*
X803283Y95168D01*
Y120731D01*
X846622D01*
X876901Y90453D01*
X879199Y88689D01*
X881874Y87581D01*
X884746Y87203D01*
X939375D01*
X942246Y87581D01*
X944922Y88689D01*
X947220Y90453D01*
X954249Y97482D01*
X956012Y99780D01*
X957121Y102456D01*
X957499Y105328D01*
Y107398D01*
X958442Y108849D01*
X960650Y110613D01*
X967499Y114241D01*
X968549Y114032D01*
X971503D01*
X974401Y114608D01*
X977131Y115739D01*
X979588Y117381D01*
X981677Y119470D01*
X983319Y121927D01*
X984449Y124657D01*
X985026Y127555D01*
Y130509D01*
X984449Y133407D01*
X983319Y136137D01*
X981677Y138594D01*
X979588Y140683D01*
X979092Y141014D01*
Y157484D01*
X978748Y160095D01*
X977741Y162527D01*
X976138Y164616D01*
X886066Y254688D01*
X884471Y257258D01*
X886028Y260305D01*
X886888Y263514D01*
Y266838D01*
X886028Y270047D01*
X885799Y270444D01*
Y294191D01*
X886329Y294721D01*
X904756D01*
X907628Y295099D01*
X910304Y296208D01*
X912601Y297971D01*
X918459Y303829D01*
X920222Y306126D01*
X921331Y308802D01*
X921709Y311674D01*
Y331799D01*
X922728Y333564D01*
X923614Y336870D01*
Y340294D01*
X922728Y343600D01*
X921709Y345365D01*
Y381145D01*
X921331Y384016D01*
X920222Y386692D01*
X918459Y388990D01*
X874438Y433011D01*
X874270Y433638D01*
X872690Y436374D01*
X870456Y438608D01*
X867720Y440188D01*
X864668Y441006D01*
D02*
G37*
G36*
X273528Y267636D02*
X270540D01*
X267653Y266863D01*
X265065Y265368D01*
X262952Y263255D01*
X261458Y260667D01*
X260684Y257780D01*
Y254792D01*
X261458Y251905D01*
X261821Y251276D01*
Y198150D01*
X257780D01*
Y170150D01*
X261694D01*
Y161290D01*
X262037Y158680D01*
X263045Y156247D01*
X264648Y154158D01*
X272522Y146284D01*
X274611Y144681D01*
X277043Y143673D01*
X279654Y143330D01*
X316722D01*
X319333Y143673D01*
X321765Y144681D01*
X323854Y146284D01*
X329712Y152142D01*
X331315Y154231D01*
X332323Y156663D01*
X332666Y159274D01*
Y174437D01*
X333783Y175554D01*
X335626Y178746D01*
X336580Y182307D01*
Y185993D01*
X335626Y189554D01*
X333783Y192746D01*
X331176Y195353D01*
X327984Y197196D01*
X324423Y198150D01*
X320737D01*
X317176Y197196D01*
X313984Y195353D01*
X311377Y192746D01*
X309534Y189554D01*
X308580Y185993D01*
Y182307D01*
X309534Y178746D01*
X311377Y175554D01*
X312494Y174437D01*
Y163502D01*
X293026D01*
X285780Y170150D01*
Y198150D01*
X281993D01*
Y250836D01*
X282610Y251905D01*
X283384Y254792D01*
Y257780D01*
X282610Y260667D01*
X281116Y263255D01*
X279003Y265368D01*
X276415Y266863D01*
X273528Y267636D01*
D02*
G37*
%LPD*%
G36*
X852420Y272012D02*
X852677Y271995D01*
X853309Y271870D01*
X855788Y270377D01*
X858599Y268228D01*
X858721Y268122D01*
X861648Y263932D01*
Y263514D01*
X862508Y260305D01*
X864169Y257427D01*
X866519Y255077D01*
X869397Y253416D01*
X872607Y252556D01*
X875929D01*
X879139Y253416D01*
X880403Y254146D01*
X881734Y252000D01*
X882135Y251571D01*
X882461Y251083D01*
X972297Y161248D01*
X973288Y159956D01*
X973782Y158764D01*
X973994Y157150D01*
Y141014D01*
X974092Y140522D01*
Y140020D01*
X974284Y139556D01*
X974382Y139064D01*
X974661Y138646D01*
X974853Y138182D01*
X975209Y137827D01*
X975487Y137410D01*
X975905Y137131D01*
X976260Y136776D01*
X976338Y136723D01*
X977717Y135344D01*
X978801Y133722D01*
X979548Y131920D01*
X979928Y130007D01*
Y128057D01*
X979548Y126144D01*
X978801Y124342D01*
X977717Y122720D01*
X976338Y121341D01*
X974716Y120257D01*
X972914Y119510D01*
X971001Y119130D01*
X969051D01*
X968494Y119241D01*
X967754D01*
X967018Y119316D01*
X966337Y119324D01*
X962545Y121202D01*
X957499Y126029D01*
Y154007D01*
X957121Y156878D01*
X956012Y159554D01*
X954249Y161852D01*
X947220Y168881D01*
X944922Y170644D01*
X942246Y171753D01*
X939375Y172131D01*
X908836D01*
X835406Y245560D01*
Y260969D01*
X836088Y263514D01*
Y264038D01*
X837913Y266907D01*
X839393Y268445D01*
X842106Y270547D01*
X843815Y271600D01*
X845034Y272011D01*
X845085Y272016D01*
X845475Y272137D01*
X845882Y272163D01*
X847878Y272698D01*
X849858D01*
X852420Y272012D01*
D02*
G37*
D27*
X910614Y338582D02*
D03*
D28*
X801854D02*
D03*
D31*
X878934Y247556D02*
X969006Y157484D01*
X849350Y265176D02*
X866970Y247556D01*
X969006Y130052D02*
Y157484D01*
X866970Y247556D02*
X878934D01*
X848868Y265176D02*
X849350D01*
X969006Y130052D02*
X970026Y129032D01*
X558292Y61214D02*
Y88138D01*
X39593Y255524D02*
X92456D01*
X38577Y256540D02*
X39593Y255524D01*
X271907Y184277D02*
Y256159D01*
X271780Y184150D02*
X271907Y184277D01*
Y256159D02*
X272034Y256286D01*
X279654Y153416D02*
X316722D01*
X271780Y161290D02*
X279654Y153416D01*
X322580Y159274D02*
Y184150D01*
X316722Y153416D02*
X322580Y159274D01*
X271780Y161290D02*
Y184150D01*
X112522Y198501D02*
Y198882D01*
X112141Y198120D02*
X112522Y198501D01*
X112141Y162433D02*
Y198120D01*
X111760Y162052D02*
X112141Y162433D01*
D32*
X881734Y305816D02*
X904756D01*
X874704Y298787D02*
X881734Y305816D01*
X874704Y265612D02*
Y298787D01*
X606552Y179324D02*
Y203708D01*
X677672Y274828D01*
X74555Y303530D02*
X81413Y296672D01*
X116078D01*
X72390Y303530D02*
X74555D01*
X116266Y332994D02*
X117348D01*
X72390Y328930D02*
X112202D01*
X116266Y332994D01*
X72390Y379730D02*
X72644Y379476D01*
X115824D02*
X116078Y379222D01*
X72644Y379476D02*
X115824D01*
X290087Y814089D02*
X290322Y813854D01*
X166347Y814089D02*
X290087D01*
X166112Y814324D02*
X166347Y814089D01*
X290322Y813854D02*
X401536D01*
X449326Y716280D02*
Y766064D01*
X401536Y813854D02*
X449326Y766064D01*
X373634Y487680D02*
X449326D01*
X363103Y477280D02*
X363234D01*
X373634Y487680D01*
X180594Y465074D02*
X268986D01*
X268859Y464947D02*
X350770D01*
X363103Y477280D01*
X448715Y513691D02*
X449326Y513080D01*
X269369Y513691D02*
X448715D01*
X268986Y514074D02*
X269369Y513691D01*
X180162Y514096D02*
X180173Y514085D01*
X268975D02*
X268986Y514074D01*
X180173Y514085D02*
X268975D01*
X697244Y244616D02*
Y604744D01*
X631952Y179324D02*
X697244Y244616D01*
X687308Y614680D02*
X697244Y604744D01*
X525526Y614680D02*
X687308D01*
X677672Y274828D02*
Y582251D01*
X581152Y179324D02*
Y207772D01*
X657606Y284226D01*
X525526Y589280D02*
X670642D01*
X677672Y582251D01*
X423672Y209804D02*
X454152Y179324D01*
X423672Y209804D02*
Y360426D01*
X524926Y539080D02*
X525526Y538480D01*
X449326Y563880D02*
X449926Y563280D01*
X499526Y539080D02*
X524926D01*
X475326Y563280D02*
X499526Y539080D01*
X448439Y562993D02*
X449326Y563880D01*
X449926Y563280D02*
X475326D01*
X38577Y256540D02*
Y352806D01*
Y235235D02*
Y256540D01*
X558292Y88138D02*
X785159D01*
X190163D02*
X558292D01*
X358013Y587845D02*
X383248Y562610D01*
X561848Y512826D02*
X562231Y512443D01*
X561721Y512953D02*
X561848Y512826D01*
X162560Y139446D02*
X183134Y118872D01*
X162560Y139446D02*
Y162052D01*
X162052Y162560D02*
Y199822D01*
X183134Y95168D02*
Y118872D01*
Y95168D02*
X190163Y88138D01*
X792188Y95168D02*
Y131826D01*
X785159Y88138D02*
X792188Y95168D01*
X137160Y126238D02*
Y184404D01*
X142240Y189484D01*
Y453720D02*
X153340Y464820D01*
X142240Y189484D02*
Y453720D01*
X38577Y235235D02*
X111760Y162052D01*
X162052Y226822D02*
Y227914D01*
X824088Y241188D02*
Y264556D01*
X904240Y161036D02*
X939375D01*
X824088Y241188D02*
X904240Y161036D01*
X946404Y105328D02*
Y154007D01*
X884746Y98298D02*
X939375D01*
X946404Y105328D01*
X939375Y161036D02*
X946404Y154007D01*
X40321Y663194D02*
X70866D01*
X39813Y662686D02*
X40321Y663194D01*
X39624Y662686D02*
X39813D01*
X321652Y379222D02*
X404710Y462280D01*
X449326D01*
X211578Y379222D02*
X321652D01*
X59050Y588142D02*
X69718D01*
X19304Y627888D02*
Y796544D01*
X69718Y588142D02*
X71995Y585866D01*
X19304Y627888D02*
X59050Y588142D01*
X145796Y802894D02*
X158203Y790487D01*
X145796Y802894D02*
Y863854D01*
X290322D01*
X86614D02*
X145796D01*
X19304Y796544D02*
X86614Y863854D01*
X547878Y697246D02*
Y769620D01*
X497840Y819658D02*
Y927100D01*
Y819658D02*
X547878Y769620D01*
X501142Y579374D02*
X514723Y565793D01*
X501142Y579374D02*
Y753110D01*
X514723Y565793D02*
X523613D01*
X527777Y561629D01*
X606298Y530352D02*
Y571930D01*
X562102Y411480D02*
X586232Y387350D01*
X526034Y437388D02*
X560236D01*
X586232Y308610D02*
Y387350D01*
X504952Y227330D02*
X586232Y308610D01*
X612394Y302260D02*
Y385230D01*
X560236Y437388D02*
X612394Y385230D01*
X564896Y320802D02*
Y379050D01*
X479552Y235458D02*
X564896Y320802D01*
X557867Y386080D02*
X564896Y379050D01*
X525526Y386080D02*
X557867D01*
X823468Y265176D02*
X824088Y264556D01*
X110363Y160655D02*
X111760Y162052D01*
X37084Y159258D02*
X38481Y160655D01*
X110363D01*
X37084Y133858D02*
X37467Y133475D01*
Y71249D02*
X37850Y70866D01*
X37467Y71249D02*
Y133475D01*
X137795Y110236D02*
X153162D01*
X133350Y105791D02*
X137795Y110236D01*
X133350Y70866D02*
Y105791D01*
X851218Y131826D02*
X884746Y98298D01*
X792188Y131826D02*
X851218D01*
X929182Y683210D02*
X940308Y672084D01*
X890524Y520954D02*
X940308Y570738D01*
Y672084D01*
X902766Y683210D02*
X929182D01*
X896366Y689610D02*
X902766Y683210D01*
X627634Y958342D02*
X896366Y689610D01*
X38577Y352806D02*
X40101Y354330D01*
X72390D01*
X243586Y658368D02*
X315252Y586702D01*
X230124Y671830D02*
X243586Y658368D01*
X245364Y660146D02*
X326644D01*
X243586Y658368D02*
X245364Y660146D01*
X522986Y856488D02*
X523113Y856615D01*
Y926973D01*
X523240Y927100D01*
X472440Y815948D02*
Y927100D01*
X290830Y737870D02*
X292361Y736339D01*
X298018D01*
X307071Y735570D02*
X340409Y768907D01*
X298018Y736339D02*
X298787Y735570D01*
X307071D01*
X327113Y790487D02*
X340409Y777191D01*
Y768907D02*
Y777191D01*
X447040Y807212D02*
Y927100D01*
Y807212D02*
X501142Y753110D01*
X525526Y716280D02*
Y762862D01*
X472440Y815948D02*
X525526Y762862D01*
X526034Y691388D02*
X542020D01*
X547878Y697246D01*
X70866Y612394D02*
X111506D01*
X385318Y614172D02*
X385572Y614426D01*
X449072D01*
X449326Y614680D01*
X158203Y790487D02*
X327113D01*
X451040Y937704D02*
X471678Y958342D01*
X447040Y927100D02*
X451040Y931100D01*
Y937704D01*
X471678Y958342D02*
X627634D01*
X527777Y561629D02*
X555990D01*
X561848Y555771D01*
Y539826D02*
Y555771D01*
X525526Y513080D02*
Y538480D01*
X230124Y671830D02*
Y748284D01*
X315252Y586702D02*
X356870D01*
X245110Y763270D02*
X290830D01*
X150368D02*
X245110D01*
X230124Y748284D02*
X245110Y763270D01*
X154162Y515096D02*
X174765Y535699D01*
X355867D02*
X356870Y536702D01*
X174765Y535699D02*
X355867D01*
X361666Y535610D02*
X409702D01*
X133858Y512318D02*
X146455D01*
X147233Y513096D01*
X71995Y574182D02*
X133858Y512318D01*
X71995Y574182D02*
Y585866D01*
X147233Y513096D02*
X152162D01*
X153340Y464820D02*
Y513918D01*
X70993Y637921D02*
X112903D01*
X70866Y637794D02*
X70993Y637921D01*
X112903D02*
X113030Y638048D01*
X387613Y638311D02*
X447557D01*
X387096Y637794D02*
X387613Y638311D01*
X447557D02*
X449326Y640080D01*
X70612Y814324D02*
X99314D01*
X150368Y763270D01*
X380332Y665480D02*
X449326D01*
X290830Y687070D02*
X358742D01*
X380332Y665480D01*
Y690880D02*
X449326D01*
X358742Y712470D02*
X380332Y690880D01*
X290830Y712470D02*
X358742D01*
X767588Y429006D02*
Y487680D01*
X800862Y520954D02*
X890524D01*
X767588Y487680D02*
X800862Y520954D01*
X767588Y176530D02*
Y429006D01*
X70866Y663194D02*
Y814070D01*
X409702Y562610D02*
X410085Y562993D01*
X448439D01*
X383248Y562610D02*
X409702D01*
Y535610D02*
X410702Y536610D01*
X447456D02*
X449326Y538480D01*
X410702Y536610D02*
X447456D01*
X741934Y132080D02*
Y170672D01*
X747792Y176530D01*
X767588D01*
X832358D01*
X879856Y129032D01*
X862920Y428838D02*
X910614Y381145D01*
Y338582D02*
Y381145D01*
X211578Y296672D02*
X290322D01*
X405130Y411480D02*
X449326D01*
X290322Y296672D02*
X405130Y411480D01*
X299466Y332994D02*
X403352Y436880D01*
X449326D01*
X212848Y332994D02*
X299466D01*
X137160Y126238D02*
X153162Y110236D01*
X879856Y129032D02*
X920026D01*
X904756Y305816D02*
X910614Y311674D01*
Y338582D01*
X823468Y265176D02*
Y293624D01*
X801854Y315238D02*
X823468Y293624D01*
X801854Y315238D02*
Y338582D01*
X741934Y132080D02*
X742188Y131826D01*
X423672Y360426D02*
X449326Y386080D01*
X479552Y179324D02*
Y235458D01*
X525526Y411480D02*
X562102D01*
X504952Y179324D02*
Y227330D01*
X525526Y436880D02*
X526034Y437388D01*
X530352Y220218D02*
X612394Y302260D01*
X530352Y179324D02*
Y220218D01*
X559816Y462280D02*
X640334Y381762D01*
X525526Y462280D02*
X559816D01*
X555752Y216154D02*
X640334Y300736D01*
Y381762D01*
X555752Y179324D02*
Y216154D01*
Y179324D02*
X557665Y181237D01*
X657606Y284226D02*
Y389874D01*
X559800Y487680D02*
X657606Y389874D01*
X525526Y462280D02*
X527822Y459984D01*
X562231Y512443D02*
X588389D01*
X525653Y512953D02*
X561721D01*
X525526Y487680D02*
X559800D01*
X525526Y513080D02*
X525653Y512953D01*
X588389Y512443D02*
X606298Y530352D01*
X525526Y640080D02*
X526161Y639445D01*
X895731D02*
X896366Y638810D01*
X526161Y664845D02*
X895731D01*
X526161Y639445D02*
X895731D01*
Y664845D02*
X896366Y664210D01*
X525526Y665480D02*
X526161Y664845D01*
X896366Y613410D02*
X896747Y613029D01*
Y571627D02*
Y613029D01*
Y571627D02*
X897128Y571246D01*
X525526Y690880D02*
X526034Y691388D01*
X290322Y863854D02*
X353568Y927100D01*
X447040D01*
X70612Y814324D02*
X70866Y814070D01*
D33*
X848868Y265176D02*
D03*
X874268D02*
D03*
X823468D02*
D03*
X356870Y536702D02*
D03*
X973836Y26162D02*
D03*
X29210D02*
D03*
X966724Y969518D02*
D03*
X47244Y970788D02*
D03*
D34*
X525526Y614680D02*
D03*
X449326Y487680D02*
D03*
Y513080D02*
D03*
X525526Y716280D02*
D03*
X449326Y690880D02*
D03*
X525526D02*
D03*
X449326Y665480D02*
D03*
X525526D02*
D03*
Y640080D02*
D03*
X449326D02*
D03*
Y614680D02*
D03*
X525526Y589280D02*
D03*
X449326D02*
D03*
Y563880D02*
D03*
X525526D02*
D03*
Y538480D02*
D03*
X449326D02*
D03*
X525526Y513080D02*
D03*
Y487680D02*
D03*
X449326Y386080D02*
D03*
Y411480D02*
D03*
Y436880D02*
D03*
Y462280D02*
D03*
X525526D02*
D03*
Y436880D02*
D03*
Y411480D02*
D03*
Y386080D02*
D03*
D35*
X606552Y179324D02*
D03*
X631952D02*
D03*
X290322Y813854D02*
D03*
X581152Y179324D02*
D03*
X555752D02*
D03*
X530352D02*
D03*
X504952D02*
D03*
X479552D02*
D03*
X558292Y61214D02*
D03*
X111760Y162052D02*
D03*
X137160D02*
D03*
X290322Y863854D02*
D03*
X792188Y131826D02*
D03*
X970026Y129032D02*
D03*
D36*
X116078Y296672D02*
D03*
X117348Y332994D02*
D03*
X116078Y379222D02*
D03*
X166112Y814324D02*
D03*
X211578Y296672D02*
D03*
Y379222D02*
D03*
X212848Y332994D02*
D03*
X133350Y70866D02*
D03*
X37850D02*
D03*
X70612Y814324D02*
D03*
X767588Y429006D02*
D03*
X863088D02*
D03*
D37*
X72390Y303530D02*
D03*
Y328930D02*
D03*
X347980Y184150D02*
D03*
X322580D02*
D03*
X297180D02*
D03*
X72390Y354330D02*
D03*
X70866Y586994D02*
D03*
Y612394D02*
D03*
Y637794D02*
D03*
X37084Y133858D02*
D03*
X896366Y613410D02*
D03*
Y638810D02*
D03*
Y664210D02*
D03*
X290830Y687070D02*
D03*
Y712470D02*
D03*
Y737870D02*
D03*
X523240Y927100D02*
D03*
X497840D02*
D03*
X472440D02*
D03*
D38*
X72390Y379730D02*
D03*
X70866Y663194D02*
D03*
X37084Y159258D02*
D03*
X896366Y689610D02*
D03*
X290830Y763270D02*
D03*
D39*
X449326Y716280D02*
D03*
D40*
X180340Y464820D02*
D03*
X180162Y514096D02*
D03*
X561848Y512826D02*
D03*
X162052Y199822D02*
D03*
X112522Y198882D02*
D03*
X409702Y562610D02*
D03*
D41*
X268986Y465074D02*
D03*
D42*
Y514074D02*
D03*
D43*
X454152Y179324D02*
D03*
X508292Y61214D02*
D03*
X162560Y162052D02*
D03*
X742188Y131826D02*
D03*
X920026Y129032D02*
D03*
D44*
X271780Y184150D02*
D03*
X447040Y927100D02*
D03*
D45*
X561848Y539826D02*
D03*
X162052Y226822D02*
D03*
X112522Y225882D02*
D03*
X409702Y535610D02*
D03*
D46*
X356870Y586702D02*
D03*
D47*
X153340Y464820D02*
D03*
X153162Y514096D02*
D03*
D48*
X92456Y255524D02*
D03*
X272034Y256286D02*
D03*
X39624Y662686D02*
D03*
X606298Y571930D02*
D03*
X38577Y352806D02*
D03*
X326644Y660146D02*
D03*
X522986Y856488D02*
D03*
X111506Y612394D02*
D03*
X385318Y614172D02*
D03*
X113030Y638048D02*
D03*
X387096Y637794D02*
D03*
X897128Y571246D02*
D03*
M02*
